# File produced by Open Asset Import Library (http://www.assimp.sf.net)
# (assimp v5.0.0)

mtllib result.mtl

# 26 vertex positions
v  -0.39370078 -0.39370078 -0.98425198
v  -0.39370078 -0.39370078 0.98425198
v  -0.78740156 -0.39370078 -0.98425198
v  -0.78740156 -0.39370078 0.98425198
v  -0.78740156 0.39370078 0.98425198
v  -0.78740156 0.39370078 -0.19685039
v  -0.78740156 1.1811024 -0.98425198
v  -0.78740156 1.1811024 -0.19685039
v  0.19685039 0.39370078 -0.19685039
v  0.19685039 0.39370078 0.98425198
v  0.78740156 0.39370078 -0.19685039
v  0.78740156 0.39370078 0.98425198
v  0.78740156 -0.39370078 0.98425198
v  0.78740156 -0.39370078 -0.98425198
v  0.78740156 1.1811024 -0.98425198
v  0.78740156 1.1811024 -0.19685039
v  0.39370078 -0.39370078 0.98425198
v  0.39370078 -0.39370078 -0.98425198
v  0.39370078 0 -0.98425198
v  -0.39370078 0 -0.98425198
v  0.19685039 1.1811024 -0.19685039
v  -0.39370078 0 0.98425198
v  0.39370078 0 0.98425198
v  -0.19685039 0.39370078 0.98425198
v  -0.19685039 0.39370078 -0.19685039
v  -0.19685039 1.1811024 -0.19685039

# 53 UV coordinates
vt 0 0.5 0
vt -5 0.5 0
vt 0 -0.5 0
vt -5 -0.5 0
vt 2.5 2 0
vt -0.5 2 0
vt 2.5 0 0
vt -2.5 0 0
vt -2.5 4 0
vt -0.5 4 0
vt 0 -0.75 0
vt 3 -0.75 0
vt 0 0.75 0
vt 3 0.75 0
vt -2.5 2 0
vt 0.5 2 0
vt 2.5 4 0
vt 0.5 4 0
vt -1 0 0
vt -1 1 0
vt -2 0 0
vt -2 4 0
vt 1 1 0
vt 2 4 0
vt 2 0 0
vt 1 0 0
vt 0.75 2 0
vt -0.75 2 0
vt 0.75 0 0
vt -0.75 0 0
vt -0 1 0
vt -5 1 0
vt -0 -1 0
vt -5 -1 0
vt -2.5 1 0
vt 2.5 1 0
vt 1.5089999 0 0
vt 1.5089999 2 0
vt -1.4910001 0 0
vt 2 2 0
vt -2 2 0
vt -0 2 0
vt 2 0.5 0
vt -0 -2 0
vt 2 -0.5 0
vt 2 -2 0
vt 0 -1.8027756 0
vt 1 -1.8027756 0
vt 0 1.8027756 0
vt 1 1.8027756 0
vt -1.5089999 0 0
vt 1.4910001 0 0
vt -1.5089999 2 0

# 7 vertex normals
vn 0 -2.54 0
vn -2.54 0 0
vn 0 2.54 0
vn 2.54 0 0
vn 0 0 -2.54
vn 0 0 2.54
vn 0 2.1134079 1.4089385

# Mesh 'stitch_result_stitch all' with 48 faces
g stitch_result_stitch all
usemtl Material #25
f  1/1/1 2/2/1 3/3/1
f  3/3/1 2/2/1 4/4/1
f  5/5/2 6/6/2 4/7/2
f  4/7/2 6/6/2 3/8/2
f  3/8/2 6/6/2 7/9/2
f  7/9/2 6/6/2 8/10/2
f  9/11/3 10/12/3 11/13/3
f  11/13/3 10/12/3 12/14/3
f  12/15/4 13/8/4 11/16/4
f  11/16/4 13/8/4 14/7/4
f  11/16/4 14/7/4 15/17/4
f  15/17/4 16/18/4 11/16/4
f  17/4/1 18/3/1 13/2/1
f  13/2/1 18/3/1 14/1/1
f  18/19/5 19/20/5 14/21/5
f  14/21/5 19/20/5 15/22/5
f  15/22/5 19/20/5 20/23/5
f  15/22/5 20/23/5 7/24/5
f  7/24/5 20/23/5 3/25/5
f  3/25/5 20/23/5 1/26/5
f  16/27/6 21/28/6 11/29/6
f  11/29/6 21/28/6 9/30/6
f  20/1/4 22/2/4 1/3/4
f  1/3/4 22/2/4 2/4/4
f  19/31/1 23/32/1 20/33/1
f  20/33/1 23/32/1 22/34/1
f  18/8/2 17/7/2 19/35/2
f  19/35/2 17/7/2 23/36/2
f  9/37/4 21/38/4 10/39/4
f  24/14/3 25/13/3 5/12/3
f  5/12/3 25/13/3 6/11/3
f  6/30/6 25/29/6 8/28/6
f  8/28/6 25/29/6 26/27/6
f  13/25/6 12/40/6 23/23/6
f  23/23/6 12/40/6 10/16/6
f  23/23/6 10/16/6 24/6/6
f  23/23/6 24/6/6 22/20/6
f  22/20/6 24/6/6 5/41/6
f  22/20/6 5/41/6 4/21/6
f  4/21/6 2/19/6 22/20/6
f  23/23/6 17/26/6 13/25/6
f  16/40/3 15/42/3 21/43/3
f  21/43/3 15/42/3 7/44/3
f  21/43/3 7/44/3 26/45/3
f  26/45/3 7/44/3 8/46/3
f  24/47/7 10/48/7 26/49/7
f  26/49/7 10/48/7 21/50/7
f  25/51/2 24/52/2 26/53/2

