v 0.19685038924217224 0.3937007784843445 -0.19685038924217224
v 0.19685038924217224 0.3937007784843445 0.9842519760131836
v 0.19685038924217224 1.1811023950576782 -0.19685038924217224
v -0.19685038924217224 0.3937007784843445 0.9842519760131836
v -0.19685038924217224 0.3937007784843445 -0.19685038924217224
v -0.19685038924217224 1.1811023950576782 -0.19685038924217224
v -0.787401556968689 0.3937007784843445 -0.19685038924217224
v -0.787401556968689 1.1811023950576782 -0.9842519760131836
v -0.787401556968689 1.1811023950576782 -0.19685038924217224
v 0.787401556968689 0.3937007784843445 -0.19685038924217224
v 0.787401556968689 1.1811023950576782 -0.9842519760131836
v 0.787401556968689 1.1811023950576782 -0.19685038924217224
v 0.5249343514442444 0.3937007784843445 -0.9842519760131836
v -1.9868213740892315e-08 0.3937007784843445 -0.9842519760131836
v -0.5249343514442444 0.3937007784843445 -0.9842519760131836
v -0.787401556968689 0.3937007784843445 -0.721784770488739
v -0.787401556968689 0.3937007784843445 -0.9842519760131836
v 0.787401556968689 0.3937007784843445 -0.721784770488739
v 0.787401556968689 0.3937007784843445 -0.9842519760131836
v -0.787401556968689 0.3937007784843445 0.9842519760131836
v 0.787401556968689 0.3937007784843445 0.9842519760131836
v 0.3937007784843445 0.0 -0.9842519760131836
v -0.3937007784843445 0.0 -0.9842519760131836
v -0.3937007784843445 0.0 0.9842519760131836
v 0.3937007784843445 0.0 0.9842519760131836
v -0.787401556968689 0.0 0.3937007784843445
v -0.787401556968689 0.0 0.9842519760131836
v -0.787401556968689 0.0 -0.5905511975288391
v -0.787401556968689 0.0 -0.9842519760131836
v 0.787401556968689 0.0 0.9842519760131836
v 0.787401556968689 0.0 0.3937007784843445
v 0.787401556968689 0.0 -0.5905511975288391
v 0.787401556968689 0.0 -0.9842519760131836
v -0.3937007784843445 -0.3937007784843445 -0.9842519760131836
v -0.3937007784843445 -0.3937007784843445 0.9842519760131836
v -0.787401556968689 -0.3937007784843445 -0.9842519760131836
v -0.787401556968689 -0.3937007784843445 0.9842519760131836
v 0.787401556968689 -0.3937007784843445 0.9842519760131836
v 0.787401556968689 -0.3937007784843445 -0.9842519760131836
v 0.3937007784843445 -0.3937007784843445 0.9842519760131836
v 0.3937007784843445 -0.3937007784843445 -0.9842519760131836
f 5 4 6
f 1 3 2
f 4 2 6
f 6 2 3
f 8 7 9
f 11 12 10
f 12 3 10
f 10 3 1
f 7 5 9
f 9 5 6
f 12 11 3
f 3 11 8
f 3 8 6
f 6 8 9
f 11 13 14
f 13 11 19
f 8 11 14
f 8 14 15
f 8 15 17
f 7 8 16
f 16 8 17
f 11 10 18
f 11 18 19
f 1 2 10
f 10 2 21
f 22 25 23
f 23 25 24
f 4 5 20
f 20 5 7
f 25 21 2
f 25 2 4
f 25 4 24
f 24 4 20
f 20 7 26
f 20 26 27
f 26 7 28
f 24 20 27
f 10 21 30
f 10 30 31
f 21 25 30
f 10 31 32
f 22 23 13
f 13 23 14
f 33 22 13
f 33 13 19
f 14 23 15
f 23 29 15
f 15 29 17
f 28 7 16
f 29 28 16
f 29 16 17
f 10 32 18
f 32 33 18
f 18 33 19
f 34 35 36
f 36 35 37
f 40 41 38
f 38 41 39
f 41 22 39
f 36 23 34
f 23 24 34
f 34 24 35
f 41 40 22
f 22 40 25
f 37 35 24
f 25 40 38
f 26 37 27
f 36 37 26
f 36 26 28
f 37 24 27
f 36 28 29
f 23 36 29
f 30 38 31
f 25 38 30
f 38 39 31
f 31 39 32
f 32 39 33
f 39 22 33
